<svg xmlns="http://www.w3.org/2000/svg" width="640" height="400" viewBox="0 0 640 400" fill="none">
  <defs>
    <linearGradient id="bg" x1="0" y1="0" x2="1" y2="1">
      <stop offset="0" stop-color="#0f766e" stop-opacity="0.16"/>
      <stop offset="0.55" stop-color="#ffffff" stop-opacity="0.0"/>
      <stop offset="1" stop-color="#f59e0b" stop-opacity="0.16"/>
    </linearGradient>
    <linearGradient id="ink" x1="0" y1="0" x2="1" y2="0">
      <stop offset="0" stop-color="#0f766e"/>
      <stop offset="1" stop-color="#064e3b"/>
    </linearGradient>
    <filter id="blur" x="-50%" y="-50%" width="200%" height="200%">
      <feGaussianBlur stdDeviation="10"/>
    </filter>
  </defs>
  <rect x="8" y="8" width="624" height="384" rx="28" fill="url(#bg)" stroke="rgba(15,23,42,0.12)"/>
  <g opacity="0.85">
    <path d="M108 270 C 190 210, 250 300, 320 220 C 390 140, 455 235, 532 170" stroke="url(#ink)" stroke-width="5" stroke-linecap="round"/>
    <circle cx="108" cy="270" r="10" fill="#0f766e"/>
    <circle cx="320" cy="220" r="10" fill="#0f766e"/>
    <circle cx="532" cy="170" r="10" fill="#0f766e"/>
  </g>
  <g filter="url(#blur)" opacity="0.35">
    <circle cx="170" cy="145" r="48" fill="#0f766e"/>
    <circle cx="488" cy="262" r="56" fill="#f59e0b"/>
  </g>
  <g opacity="0.55">
    <circle cx="190" cy="265" r="4" fill="rgba(15,23,42,0.55)"/>
    <circle cx="220" cy="285" r="3" fill="rgba(15,23,42,0.55)"/>
    <circle cx="250" cy="250" r="3" fill="rgba(15,23,42,0.55)"/>
    <circle cx="420" cy="230" r="4" fill="rgba(15,23,42,0.55)"/>
    <circle cx="455" cy="250" r="3" fill="rgba(15,23,42,0.55)"/>
    <circle cx="480" cy="210" r="3" fill="rgba(15,23,42,0.55)"/>
  </g>
</svg>
