<svg xmlns="http://www.w3.org/2000/svg" viewBox="0 0 100 100" fill="currentColor">
  <!-- Hand-drawn organic starburst: irregular tapered rays from center -->
  <path d="M50 6 C51 18, 53 30, 50 50 C48 30, 47 18, 50 6Z"/>
  <path d="M50 94 C49 82, 48 70, 50 50 C52 70, 53 82, 50 94Z"/>
  <path d="M6 50 C18 49, 30 48, 50 50 C30 52, 18 53, 6 50Z"/>
  <path d="M94 50 C82 51, 70 52, 50 50 C70 48, 82 47, 94 50Z"/>
  <path d="M19 19 C28 24, 37 33, 50 50 C33 37, 24 28, 19 19Z"/>
  <path d="M81 81 C72 76, 63 67, 50 50 C67 63, 76 72, 81 81Z"/>
  <path d="M81 19 C76 28, 67 37, 50 50 C67 33, 76 24, 81 19Z"/>
  <path d="M19 81 C24 72, 33 63, 50 50 C33 67, 24 76, 19 81Z"/>
  <path d="M38 8 C41 22, 44 34, 50 50 C44 34, 39 22, 38 8Z"/>
  <path d="M62 92 C59 78, 56 66, 50 50 C56 66, 61 78, 62 92Z"/>
  <path d="M8 62 C22 59, 34 56, 50 50 C34 56, 22 61, 8 62Z"/>
  <path d="M92 38 C78 41, 66 44, 50 50 C66 44, 78 39, 92 38Z"/>
</svg>
