<svg xmlns="http://www.w3.org/2000/svg" viewBox="0 0 41 50" aria-hidden="true" focusable="false">
  <path fill-rule="evenodd" fill="currentColor" d="M23.312,44.301 L18.497,49.105 L12.435,43.800 L17.195,43.800 L17.195,41.198 L17.195,38.997 L12.435,38.997 L17.542,34.527 L18.497,33.692 L18.757,33.952 L19.966,35.157 L20.654,35.844 L23.312,38.496 L25.259,38.496 L35.436,38.496 L36.242,38.496 L36.948,38.496 L37.859,38.496 L40.277,38.496 L40.791,38.496 L40.791,44.301 L23.312,44.301 ZM36.948,36.085 L36.242,36.085 L24.317,36.085 L20.214,31.986 L19.966,31.739 L19.966,23.492 L20.306,23.294 L30.347,17.513 L36.948,21.315 L40.729,23.492 L40.729,36.085 L39.626,36.085 L36.948,36.085 ZM30.347,24.808 C27.763,24.808 25.668,26.898 25.668,29.470 C25.668,32.048 27.763,34.137 30.347,34.137 C32.926,34.137 35.021,32.048 35.021,29.470 C35.021,26.898 32.926,24.808 30.347,24.808 ZM30.347,14.731 L29.139,15.424 L18.757,21.402 L17.542,22.101 L17.542,31.318 L16.904,31.875 L10.842,37.179 L6.249,41.198 L0.002,41.198 L0.002,0.895 L27.651,0.895 C31.283,4.518 33.316,6.546 36.948,10.169 L36.948,18.527 L31.556,15.424 L30.347,14.731 ZM7.898,4.605 L3.720,4.605 L3.720,8.765 L7.898,8.765 L7.898,4.605 ZM13.947,4.605 L9.776,4.605 L9.776,8.765 L13.947,8.765 L13.947,4.605 Z" />
</svg>
