<svg xmlns="http://www.w3.org/2000/svg" viewBox="0 0 40 40" aria-hidden="true" focusable="false">
  <path fill-rule="evenodd" fill="currentColor" d="M35.744,33.156 L39.625,29.275 L31.369,21.019 L31.369,18.013 L39.616,9.766 L35.735,5.885 L26.176,15.443 L26.192,15.459 L26.185,15.459 L26.185,16.780 L22.854,16.780 L22.854,13.449 L24.184,13.449 L24.184,13.442 L24.191,13.449 L33.750,3.890 L29.869,0.009 L21.612,8.265 L18.606,8.265 L10.359,0.018 L6.478,3.899 L16.037,13.458 L16.053,13.442 L16.053,13.449 L17.365,13.449 L17.365,16.780 L14.042,16.780 L14.042,15.451 L14.035,15.451 L14.042,15.443 L4.484,5.885 L0.603,9.766 L8.859,18.022 L8.859,21.028 L0.612,29.275 L4.493,33.156 L14.052,23.597 L14.036,23.582 L14.042,23.582 L14.042,22.269 L17.365,22.269 L17.365,25.592 L16.044,25.592 L16.044,25.599 L16.037,25.592 L6.478,35.151 L10.359,39.032 L18.615,30.776 L21.622,30.776 L29.869,39.023 L33.750,35.142 L24.191,25.583 L24.175,25.599 L24.175,25.592 L22.854,25.592 L22.854,22.269 L26.185,22.269 L26.185,23.590 L26.193,23.590 L26.185,23.597 L35.744,33.156 Z" />
</svg>
