<svg xmlns="http://www.w3.org/2000/svg" viewBox="0 0 43 46" aria-hidden="true" focusable="false">
  <path fill-rule="evenodd" fill="currentColor" d="M42.255,25.263 L34.478,33.034 L40.492,38.772 L35.979,43.279 L0.879,8.211 L5.387,3.708 L14.312,12.626 L15.1000,12.614 L15.1000,-0.000 L22.1000,-0.000 L22.1000,12.561 L24.715,12.548 L32.826,4.334 L40.786,12.286 L27.795,25.263 L42.255,25.263 ZM9.208,23.757 L9.208,23.490 L14.401,23.490 L14.401,23.757 C14.401,28.070 17.915,31.578 22.230,31.578 L22.496,31.578 L22.496,36.770 L22.230,36.770 C15.048,36.770 9.208,30.932 9.208,23.757 ZM5.918,23.757 C5.918,32.744 13.235,40.055 22.230,40.055 L22.496,40.055 L22.496,45.245 L22.230,45.245 C10.371,45.245 0.723,35.605 0.723,23.757 L0.723,23.490 L5.918,23.490 L5.918,23.757 Z" />
</svg>
