<svg xmlns="http://www.w3.org/2000/svg" viewBox="0 0 42 42" aria-hidden="true" focusable="false">
  <path fill-rule="evenodd" fill="currentColor" d="M36.038,32.520 L36.038,5.876 L15.483,5.876 L15.483,0.188 L41.891,0.188 L41.891,32.520 L36.038,32.520 ZM15.614,9.516 L15.483,9.643 L15.483,9.787 L11.414,13.741 L6.027,8.506 L1.825,4.423 L1.861,4.388 L1.787,4.316 L6.060,0.164 L11.829,5.769 L15.445,9.283 L15.649,9.482 L15.614,9.516 ZM6.027,35.043 L22.791,35.043 L22.791,40.731 L0.173,40.731 L0.173,13.742 L6.027,13.742 L6.027,35.043 ZM15.652,24.914 L15.652,31.990 L8.255,31.990 L8.255,24.800 L15.535,24.800 L15.652,24.800 L15.652,9.476 L31.421,9.476 L31.421,24.800 L23.479,24.800 L23.479,32.518 L23.479,32.520 L15.652,24.914 ZM31.513,32.808 L34.107,35.331 L36.934,38.078 L33.068,41.835 L32.228,41.019 L26.374,35.331 L23.778,32.808 L23.479,32.518 L27.347,28.759 L31.513,32.808 Z" />
</svg>
