<svg xmlns="http://www.w3.org/2000/svg" viewBox="0 0 44 49" aria-hidden="true" focusable="false">
  <path fill-rule="evenodd" fill="currentColor" d="M17.123,48.243 L17.123,8.711 L35.000,20.840 L43.285,20.840 L43.285,36.113 L35.000,36.113 L17.123,48.243 ZM9.253,0.256 L14.966,0.256 L14.966,5.930 L9.253,5.930 L9.253,0.256 ZM0.967,0.256 L6.680,0.256 L6.680,5.930 L0.967,5.930 L0.967,0.256 ZM13.264,15.581 L6.882,15.581 L6.882,41.372 L13.264,41.372 L13.264,46.884 L1.332,46.884 L1.332,10.069 L13.264,10.069 L13.264,15.581 ZM34.848,47.434 L34.848,39.054 L43.285,39.054 L34.848,47.434 Z" />
</svg>
