<svg xmlns="http://www.w3.org/2000/svg" viewBox="0 0 44 49" aria-hidden="true" focusable="false">
  <path fill-rule="evenodd" fill="currentColor" d="M43.057,48.470 L37.334,48.470 L6.667,48.470 L0.942,48.470 L0.942,40.719 L0.942,15.502 L0.941,15.502 L0.941,6.304 L0.942,6.304 L0.942,6.301 L6.667,6.301 L6.667,6.304 L9.743,6.304 L9.743,10.903 L34.526,10.903 L34.526,6.304 L37.334,6.304 L37.334,6.301 L43.058,6.301 L43.058,48.470 L43.057,48.470 ZM37.334,15.502 L6.667,15.502 L6.667,40.719 L10.448,40.719 L10.448,35.267 C10.448,32.112 12.951,29.554 16.037,29.554 L27.963,29.554 C31.049,29.554 33.551,32.112 33.551,35.267 L33.551,40.719 L37.334,40.719 L37.334,15.502 ZM22.000,27.793 C19.155,27.793 16.848,25.434 16.848,22.526 C16.848,19.617 19.155,17.259 22.000,17.259 C24.845,17.259 27.152,19.617 27.152,22.526 C27.152,25.434 24.845,27.793 22.000,27.793 ZM9.743,0.506 L34.526,0.506 L34.526,6.304 L9.743,6.304 L9.743,0.506 Z" />
</svg>
